<svg id="visual" viewBox="0 0 960 540" width="960" height="540" xmlns="http://www.w3.org/2000/svg" xmlns:xlink="http://www.w3.org/1999/xlink" version="1.1"><rect x="0" y="0" width="960" height="540" fill="#5EC8F2"></rect><path d="M0 452L53.3 452.3C106.7 452.7 213.3 453.3 320 453.5C426.7 453.7 533.3 453.3 640 453.3C746.7 453.3 853.3 453.7 906.7 453.8L960 454L960 541L906.7 541C853.3 541 746.7 541 640 541C533.3 541 426.7 541 320 541C213.3 541 106.7 541 53.3 541L0 541Z" fill="#0388a6"></path><path d="M0 473L53.3 473.3C106.7 473.7 213.3 474.3 320 474.3C426.7 474.3 533.3 473.7 640 473.5C746.7 473.3 853.3 473.7 906.7 473.8L960 474L960 541L906.7 541C853.3 541 746.7 541 640 541C533.3 541 426.7 541 320 541C213.3 541 106.7 541 53.3 541L0 541Z" fill="#007c9e"></path><path d="M0 494L53.3 494.5C106.7 495 213.3 496 320 496.5C426.7 497 533.3 497 640 496.7C746.7 496.3 853.3 495.7 906.7 495.3L960 495L960 541L906.7 541C853.3 541 746.7 541 640 541C533.3 541 426.7 541 320 541C213.3 541 106.7 541 53.3 541L0 541Z" fill="#007095"></path><path d="M0 518L53.3 518C106.7 518 213.3 518 320 517.8C426.7 517.7 533.3 517.3 640 517.5C746.7 517.7 853.3 518.3 906.7 518.7L960 519L960 541L906.7 541C853.3 541 746.7 541 640 541C533.3 541 426.7 541 320 541C213.3 541 106.7 541 53.3 541L0 541Z" fill="#03658c"></path></svg>