<svg id="visual" viewBox="0 0 960 540" width="960" height="540" xmlns="http://www.w3.org/2000/svg" xmlns:xlink="http://www.w3.org/1999/xlink" version="1.1"><rect x="0" y="0" width="960" height="540" fill="#5EC8F2"></rect><path d="M0 453L13.3 453.2C26.7 453.3 53.3 453.7 80 453.7C106.7 453.7 133.3 453.3 160 453.2C186.7 453 213.3 453 240 453C266.7 453 293.3 453 320 452.7C346.7 452.3 373.3 451.7 400 451.5C426.7 451.3 453.3 451.7 480 451.8C506.7 452 533.3 452 560 452C586.7 452 613.3 452 640 452.2C666.7 452.3 693.3 452.7 720 453C746.7 453.3 773.3 453.7 800 454C826.7 454.3 853.3 454.7 880 454.2C906.7 453.7 933.3 452.3 946.7 451.7L960 451L960 541L946.7 541C933.3 541 906.7 541 880 541C853.3 541 826.7 541 800 541C773.3 541 746.7 541 720 541C693.3 541 666.7 541 640 541C613.3 541 586.7 541 560 541C533.3 541 506.7 541 480 541C453.3 541 426.7 541 400 541C373.3 541 346.7 541 320 541C293.3 541 266.7 541 240 541C213.3 541 186.7 541 160 541C133.3 541 106.7 541 80 541C53.3 541 26.7 541 13.3 541L0 541Z" fill="#0388a6"></path><path d="M0 476L13.3 475.8C26.7 475.7 53.3 475.3 80 475.3C106.7 475.3 133.3 475.7 160 475.7C186.7 475.7 213.3 475.3 240 474.7C266.7 474 293.3 473 320 472.8C346.7 472.7 373.3 473.3 400 473.8C426.7 474.3 453.3 474.7 480 474.5C506.7 474.3 533.3 473.7 560 473.3C586.7 473 613.3 473 640 472.8C666.7 472.7 693.3 472.3 720 472.5C746.7 472.7 773.3 473.3 800 474C826.7 474.7 853.3 475.3 880 475.2C906.7 475 933.3 474 946.7 473.5L960 473L960 541L946.7 541C933.3 541 906.7 541 880 541C853.3 541 826.7 541 800 541C773.3 541 746.7 541 720 541C693.3 541 666.7 541 640 541C613.3 541 586.7 541 560 541C533.3 541 506.7 541 480 541C453.3 541 426.7 541 400 541C373.3 541 346.7 541 320 541C293.3 541 266.7 541 240 541C213.3 541 186.7 541 160 541C133.3 541 106.7 541 80 541C53.3 541 26.7 541 13.3 541L0 541Z" fill="#007c9e"></path><path d="M0 497L13.3 497.2C26.7 497.3 53.3 497.7 80 497.5C106.7 497.3 133.3 496.7 160 496C186.7 495.3 213.3 494.7 240 494.8C266.7 495 293.3 496 320 496.3C346.7 496.7 373.3 496.3 400 496.3C426.7 496.3 453.3 496.7 480 496.7C506.7 496.7 533.3 496.3 560 495.8C586.7 495.3 613.3 494.7 640 494.8C666.7 495 693.3 496 720 496.3C746.7 496.7 773.3 496.3 800 496C826.7 495.7 853.3 495.3 880 495.2C906.7 495 933.3 495 946.7 495L960 495L960 541L946.7 541C933.3 541 906.7 541 880 541C853.3 541 826.7 541 800 541C773.3 541 746.7 541 720 541C693.3 541 666.7 541 640 541C613.3 541 586.7 541 560 541C533.3 541 506.7 541 480 541C453.3 541 426.7 541 400 541C373.3 541 346.7 541 320 541C293.3 541 266.7 541 240 541C213.3 541 186.7 541 160 541C133.3 541 106.7 541 80 541C53.3 541 26.7 541 13.3 541L0 541Z" fill="#007095"></path><path d="M0 517L13.3 517C26.7 517 53.3 517 80 517C106.7 517 133.3 517 160 516.7C186.7 516.3 213.3 515.7 240 515.5C266.7 515.3 293.3 515.7 320 516.3C346.7 517 373.3 518 400 518.2C426.7 518.3 453.3 517.7 480 517.2C506.7 516.7 533.3 516.3 560 516C586.7 515.7 613.3 515.3 640 515.3C666.7 515.3 693.3 515.7 720 515.8C746.7 516 773.3 516 800 516.2C826.7 516.3 853.3 516.7 880 517.2C906.7 517.7 933.3 518.3 946.7 518.7L960 519L960 541L946.7 541C933.3 541 906.7 541 880 541C853.3 541 826.7 541 800 541C773.3 541 746.7 541 720 541C693.3 541 666.7 541 640 541C613.3 541 586.7 541 560 541C533.3 541 506.7 541 480 541C453.3 541 426.7 541 400 541C373.3 541 346.7 541 320 541C293.3 541 266.7 541 240 541C213.3 541 186.7 541 160 541C133.3 541 106.7 541 80 541C53.3 541 26.7 541 13.3 541L0 541Z" fill="#03658c"></path></svg>