<svg id="visual" viewBox="0 0 960 540" width="960" height="540" xmlns="http://www.w3.org/2000/svg" xmlns:xlink="http://www.w3.org/1999/xlink" version="1.1"><rect x="0" y="0" width="960" height="540" fill="#5EC8F2"></rect><path d="M0 453L10 453.2C20 453.3 40 453.7 60 453.5C80 453.3 100 452.7 120 452.5C140 452.3 160 452.7 180 452.8C200 453 220 453 240 453.2C260 453.3 280 453.7 300 453.7C320 453.7 340 453.3 360 453.2C380 453 400 453 420 453C440 453 460 453 480 453C500 453 520 453 540 452.8C560 452.7 580 452.3 600 452C620 451.7 640 451.3 660 451.2C680 451 700 451 720 451.5C740 452 760 453 780 452.8C800 452.7 820 451.3 840 451.3C860 451.3 880 452.7 900 453C920 453.3 940 452.7 950 452.3L960 452L960 541L950 541C940 541 920 541 900 541C880 541 860 541 840 541C820 541 800 541 780 541C760 541 740 541 720 541C700 541 680 541 660 541C640 541 620 541 600 541C580 541 560 541 540 541C520 541 500 541 480 541C460 541 440 541 420 541C400 541 380 541 360 541C340 541 320 541 300 541C280 541 260 541 240 541C220 541 200 541 180 541C160 541 140 541 120 541C100 541 80 541 60 541C40 541 20 541 10 541L0 541Z" fill="#0388a6"></path><path d="M0 474L10 474.2C20 474.3 40 474.7 60 475C80 475.3 100 475.7 120 475.7C140 475.7 160 475.3 180 475C200 474.7 220 474.3 240 474.3C260 474.3 280 474.7 300 474.7C320 474.7 340 474.3 360 474.2C380 474 400 474 420 473.8C440 473.7 460 473.3 480 473.3C500 473.3 520 473.7 540 473.7C560 473.7 580 473.3 600 473.7C620 474 640 475 660 475.2C680 475.3 700 474.7 720 474.5C740 474.3 760 474.7 780 474.8C800 475 820 475 840 475C860 475 880 475 900 475C920 475 940 475 950 475L960 475L960 541L950 541C940 541 920 541 900 541C880 541 860 541 840 541C820 541 800 541 780 541C760 541 740 541 720 541C700 541 680 541 660 541C640 541 620 541 600 541C580 541 560 541 540 541C520 541 500 541 480 541C460 541 440 541 420 541C400 541 380 541 360 541C340 541 320 541 300 541C280 541 260 541 240 541C220 541 200 541 180 541C160 541 140 541 120 541C100 541 80 541 60 541C40 541 20 541 10 541L0 541Z" fill="#007c9e"></path><path d="M0 498L10 497.7C20 497.3 40 496.7 60 496C80 495.3 100 494.7 120 494.8C140 495 160 496 180 496.7C200 497.3 220 497.7 240 497.2C260 496.7 280 495.3 300 494.7C320 494 340 494 360 494.2C380 494.3 400 494.7 420 494.8C440 495 460 495 480 495.3C500 495.7 520 496.3 540 496.2C560 496 580 495 600 495C620 495 640 496 660 496C680 496 700 495 720 494.7C740 494.3 760 494.7 780 495.2C800 495.7 820 496.3 840 496.7C860 497 880 497 900 496.5C920 496 940 495 950 494.5L960 494L960 541L950 541C940 541 920 541 900 541C880 541 860 541 840 541C820 541 800 541 780 541C760 541 740 541 720 541C700 541 680 541 660 541C640 541 620 541 600 541C580 541 560 541 540 541C520 541 500 541 480 541C460 541 440 541 420 541C400 541 380 541 360 541C340 541 320 541 300 541C280 541 260 541 240 541C220 541 200 541 180 541C160 541 140 541 120 541C100 541 80 541 60 541C40 541 20 541 10 541L0 541Z" fill="#007095"></path><path d="M0 516L10 516C20 516 40 516 60 516.3C80 516.7 100 517.3 120 517.8C140 518.3 160 518.7 180 518.8C200 519 220 519 240 518.7C260 518.3 280 517.7 300 517.2C320 516.7 340 516.3 360 516.7C380 517 400 518 420 518C440 518 460 517 480 516.7C500 516.3 520 516.7 540 517C560 517.3 580 517.7 600 518C620 518.3 640 518.7 660 518.7C680 518.7 700 518.3 720 518.2C740 518 760 518 780 517.7C800 517.3 820 516.7 840 516.8C860 517 880 518 900 518.2C920 518.3 940 517.7 950 517.3L960 517L960 541L950 541C940 541 920 541 900 541C880 541 860 541 840 541C820 541 800 541 780 541C760 541 740 541 720 541C700 541 680 541 660 541C640 541 620 541 600 541C580 541 560 541 540 541C520 541 500 541 480 541C460 541 440 541 420 541C400 541 380 541 360 541C340 541 320 541 300 541C280 541 260 541 240 541C220 541 200 541 180 541C160 541 140 541 120 541C100 541 80 541 60 541C40 541 20 541 10 541L0 541Z" fill="#03658c"></path></svg>