<svg id="visual" viewBox="0 0 960 540" width="960" height="540" xmlns="http://www.w3.org/2000/svg" xmlns:xlink="http://www.w3.org/1999/xlink" version="1.1"><rect x="0" y="0" width="960" height="540" fill="#5EC8F2"></rect><path d="M0 454L16 453.5C32 453 64 452 96 451.5C128 451 160 451 192 451.2C224 451.3 256 451.7 288 451.8C320 452 352 452 384 452C416 452 448 452 480 452C512 452 544 452 576 452.2C608 452.3 640 452.7 672 452.7C704 452.7 736 452.3 768 452.5C800 452.7 832 453.3 864 453.3C896 453.3 928 452.7 944 452.3L960 452L960 541L944 541C928 541 896 541 864 541C832 541 800 541 768 541C736 541 704 541 672 541C640 541 608 541 576 541C544 541 512 541 480 541C448 541 416 541 384 541C352 541 320 541 288 541C256 541 224 541 192 541C160 541 128 541 96 541C64 541 32 541 16 541L0 541Z" fill="#0388a6"></path><path d="M0 474L16 474.3C32 474.7 64 475.3 96 475.7C128 476 160 476 192 475.8C224 475.7 256 475.3 288 474.8C320 474.3 352 473.7 384 473.3C416 473 448 473 480 473C512 473 544 473 576 472.8C608 472.7 640 472.3 672 472.3C704 472.3 736 472.7 768 473C800 473.3 832 473.7 864 473.8C896 474 928 474 944 474L960 474L960 541L944 541C928 541 896 541 864 541C832 541 800 541 768 541C736 541 704 541 672 541C640 541 608 541 576 541C544 541 512 541 480 541C448 541 416 541 384 541C352 541 320 541 288 541C256 541 224 541 192 541C160 541 128 541 96 541C64 541 32 541 16 541L0 541Z" fill="#007c9e"></path><path d="M0 496L16 495.7C32 495.3 64 494.7 96 494.3C128 494 160 494 192 494.5C224 495 256 496 288 496.3C320 496.7 352 496.3 384 496.2C416 496 448 496 480 496.2C512 496.3 544 496.7 576 497C608 497.3 640 497.7 672 497.5C704 497.3 736 496.7 768 496C800 495.3 832 494.7 864 494.7C896 494.7 928 495.3 944 495.7L960 496L960 541L944 541C928 541 896 541 864 541C832 541 800 541 768 541C736 541 704 541 672 541C640 541 608 541 576 541C544 541 512 541 480 541C448 541 416 541 384 541C352 541 320 541 288 541C256 541 224 541 192 541C160 541 128 541 96 541C64 541 32 541 16 541L0 541Z" fill="#007095"></path><path d="M0 518L16 518.2C32 518.3 64 518.7 96 519C128 519.3 160 519.7 192 519.3C224 519 256 518 288 517.5C320 517 352 517 384 517.2C416 517.3 448 517.7 480 517.5C512 517.3 544 516.7 576 516.3C608 516 640 516 672 516.3C704 516.7 736 517.3 768 517.3C800 517.3 832 516.7 864 516.3C896 516 928 516 944 516L960 516L960 541L944 541C928 541 896 541 864 541C832 541 800 541 768 541C736 541 704 541 672 541C640 541 608 541 576 541C544 541 512 541 480 541C448 541 416 541 384 541C352 541 320 541 288 541C256 541 224 541 192 541C160 541 128 541 96 541C64 541 32 541 16 541L0 541Z" fill="#03658c"></path></svg>