<svg id="visual" viewBox="0 0 960 540" width="960" height="540" xmlns="http://www.w3.org/2000/svg" xmlns:xlink="http://www.w3.org/1999/xlink" version="1.1"><rect x="0" y="0" width="960" height="540" fill="#5EC8F2"></rect><path d="M0 452L10.7 451.8C21.3 451.7 42.7 451.3 64 451.3C85.3 451.3 106.7 451.7 128 452.3C149.3 453 170.7 454 192 454.3C213.3 454.7 234.7 454.3 256 454.2C277.3 454 298.7 454 320 453.5C341.3 453 362.7 452 384 451.8C405.3 451.7 426.7 452.3 448 452.7C469.3 453 490.7 453 512 453C533.3 453 554.7 453 576 452.7C597.3 452.3 618.7 451.7 640 451.7C661.3 451.7 682.7 452.3 704 452.5C725.3 452.7 746.7 452.3 768 452.2C789.3 452 810.7 452 832 452C853.3 452 874.7 452 896 452.5C917.3 453 938.7 454 949.3 454.5L960 455L960 541L949.3 541C938.7 541 917.3 541 896 541C874.7 541 853.3 541 832 541C810.7 541 789.3 541 768 541C746.7 541 725.3 541 704 541C682.7 541 661.3 541 640 541C618.7 541 597.3 541 576 541C554.7 541 533.3 541 512 541C490.7 541 469.3 541 448 541C426.7 541 405.3 541 384 541C362.7 541 341.3 541 320 541C298.7 541 277.3 541 256 541C234.7 541 213.3 541 192 541C170.7 541 149.3 541 128 541C106.7 541 85.3 541 64 541C42.7 541 21.3 541 10.7 541L0 541Z" fill="#0388a6"></path><path d="M0 476L10.7 475.5C21.3 475 42.7 474 64 473.7C85.3 473.3 106.7 473.7 128 474C149.3 474.3 170.7 474.7 192 474.5C213.3 474.3 234.7 473.7 256 473.8C277.3 474 298.7 475 320 475.3C341.3 475.7 362.7 475.3 384 475.2C405.3 475 426.7 475 448 474.7C469.3 474.3 490.7 473.7 512 473.8C533.3 474 554.7 475 576 475.3C597.3 475.7 618.7 475.3 640 475C661.3 474.7 682.7 474.3 704 474.2C725.3 474 746.7 474 768 474.3C789.3 474.7 810.7 475.3 832 475.7C853.3 476 874.7 476 896 475.7C917.3 475.3 938.7 474.7 949.3 474.3L960 474L960 541L949.3 541C938.7 541 917.3 541 896 541C874.7 541 853.3 541 832 541C810.7 541 789.3 541 768 541C746.7 541 725.3 541 704 541C682.7 541 661.3 541 640 541C618.7 541 597.3 541 576 541C554.7 541 533.3 541 512 541C490.7 541 469.3 541 448 541C426.7 541 405.3 541 384 541C362.7 541 341.3 541 320 541C298.7 541 277.3 541 256 541C234.7 541 213.3 541 192 541C170.7 541 149.3 541 128 541C106.7 541 85.3 541 64 541C42.7 541 21.3 541 10.7 541L0 541Z" fill="#007c9e"></path><path d="M0 498L10.7 497.3C21.3 496.7 42.7 495.3 64 494.8C85.3 494.3 106.7 494.7 128 495.2C149.3 495.7 170.7 496.3 192 496.7C213.3 497 234.7 497 256 497.2C277.3 497.3 298.7 497.7 320 497.2C341.3 496.7 362.7 495.3 384 494.8C405.3 494.3 426.7 494.7 448 494.8C469.3 495 490.7 495 512 495.2C533.3 495.3 554.7 495.7 576 495.5C597.3 495.3 618.7 494.7 640 494.8C661.3 495 682.7 496 704 496.2C725.3 496.3 746.7 495.7 768 495.5C789.3 495.3 810.7 495.7 832 495.5C853.3 495.3 874.7 494.7 896 494.8C917.3 495 938.7 496 949.3 496.5L960 497L960 541L949.3 541C938.7 541 917.3 541 896 541C874.7 541 853.3 541 832 541C810.7 541 789.3 541 768 541C746.7 541 725.3 541 704 541C682.7 541 661.3 541 640 541C618.7 541 597.3 541 576 541C554.7 541 533.3 541 512 541C490.7 541 469.3 541 448 541C426.7 541 405.3 541 384 541C362.7 541 341.3 541 320 541C298.7 541 277.3 541 256 541C234.7 541 213.3 541 192 541C170.7 541 149.3 541 128 541C106.7 541 85.3 541 64 541C42.7 541 21.3 541 10.7 541L0 541Z" fill="#007095"></path><path d="M0 517L10.7 517C21.3 517 42.7 517 64 517C85.3 517 106.7 517 128 516.7C149.3 516.3 170.7 515.7 192 515.5C213.3 515.3 234.7 515.7 256 516.5C277.3 517.3 298.7 518.7 320 519.2C341.3 519.7 362.7 519.3 384 519.2C405.3 519 426.7 519 448 518.3C469.3 517.7 490.7 516.3 512 515.7C533.3 515 554.7 515 576 515.7C597.3 516.3 618.7 517.7 640 517.8C661.3 518 682.7 517 704 517C725.3 517 746.7 518 768 518.3C789.3 518.7 810.7 518.3 832 518.2C853.3 518 874.7 518 896 518C917.3 518 938.7 518 949.3 518L960 518L960 541L949.3 541C938.7 541 917.3 541 896 541C874.7 541 853.3 541 832 541C810.7 541 789.3 541 768 541C746.7 541 725.3 541 704 541C682.7 541 661.3 541 640 541C618.7 541 597.3 541 576 541C554.7 541 533.3 541 512 541C490.7 541 469.3 541 448 541C426.7 541 405.3 541 384 541C362.7 541 341.3 541 320 541C298.7 541 277.3 541 256 541C234.7 541 213.3 541 192 541C170.7 541 149.3 541 128 541C106.7 541 85.3 541 64 541C42.7 541 21.3 541 10.7 541L0 541Z" fill="#03658c"></path></svg>