<svg id="visual" viewBox="0 0 960 540" width="960" height="540" xmlns="http://www.w3.org/2000/svg" xmlns:xlink="http://www.w3.org/1999/xlink" version="1.1"><rect x="0" y="0" width="960" height="540" fill="#5EC8F2"></rect><path d="M0 453L7 452.7C14 452.3 28 451.7 41.8 451.7C55.7 451.7 69.3 452.3 83.2 452.3C97 452.3 111 451.7 125 452C139 452.3 153 453.7 167 453.8C181 454 195 453 208.8 452.3C222.7 451.7 236.3 451.3 250.2 451.5C264 451.7 278 452.3 292 452.5C306 452.7 320 452.3 334 452.3C348 452.3 362 452.7 375.8 452.7C389.7 452.7 403.3 452.3 417.2 452.3C431 452.3 445 452.7 459 452.3C473 452 487 451 501 450.8C515 450.7 529 451.3 542.8 451.8C556.7 452.3 570.3 452.7 584.2 453C598 453.3 612 453.7 626 453.7C640 453.7 654 453.3 668 453.5C682 453.7 696 454.3 709.8 454.5C723.7 454.7 737.3 454.3 751.2 453.7C765 453 779 452 793 452C807 452 821 453 835 453.2C849 453.3 863 452.7 876.8 452.2C890.7 451.7 904.3 451.3 918.2 451C932 450.7 946 450.3 953 450.2L960 450L960 541L953 541C946 541 932 541 918.2 541C904.3 541 890.7 541 876.8 541C863 541 849 541 835 541C821 541 807 541 793 541C779 541 765 541 751.2 541C737.3 541 723.7 541 709.8 541C696 541 682 541 668 541C654 541 640 541 626 541C612 541 598 541 584.2 541C570.3 541 556.7 541 542.8 541C529 541 515 541 501 541C487 541 473 541 459 541C445 541 431 541 417.2 541C403.3 541 389.7 541 375.8 541C362 541 348 541 334 541C320 541 306 541 292 541C278 541 264 541 250.2 541C236.3 541 222.7 541 208.8 541C195 541 181 541 167 541C153 541 139 541 125 541C111 541 97 541 83.2 541C69.3 541 55.7 541 41.8 541C28 541 14 541 7 541L0 541Z" fill="#0388a6"></path><path d="M0 475L7 474.7C14 474.3 28 473.7 41.8 473.8C55.7 474 69.3 475 83.2 475.5C97 476 111 476 125 475.7C139 475.3 153 474.7 167 474.5C181 474.3 195 474.7 208.8 474.5C222.7 474.3 236.3 473.7 250.2 473.8C264 474 278 475 292 475C306 475 320 474 334 473.8C348 473.7 362 474.3 375.8 474.7C389.7 475 403.3 475 417.2 474.7C431 474.3 445 473.7 459 473.5C473 473.3 487 473.7 501 474C515 474.3 529 474.7 542.8 474.8C556.7 475 570.3 475 584.2 474.7C598 474.3 612 473.7 626 473.2C640 472.7 654 472.3 668 472.7C682 473 696 474 709.8 474.3C723.7 474.7 737.3 474.3 751.2 474C765 473.7 779 473.3 793 473.2C807 473 821 473 835 473.3C849 473.7 863 474.3 876.8 474.5C890.7 474.7 904.3 474.3 918.2 474C932 473.7 946 473.3 953 473.2L960 473L960 541L953 541C946 541 932 541 918.2 541C904.3 541 890.7 541 876.8 541C863 541 849 541 835 541C821 541 807 541 793 541C779 541 765 541 751.2 541C737.3 541 723.7 541 709.8 541C696 541 682 541 668 541C654 541 640 541 626 541C612 541 598 541 584.2 541C570.3 541 556.7 541 542.8 541C529 541 515 541 501 541C487 541 473 541 459 541C445 541 431 541 417.2 541C403.3 541 389.7 541 375.8 541C362 541 348 541 334 541C320 541 306 541 292 541C278 541 264 541 250.2 541C236.3 541 222.7 541 208.8 541C195 541 181 541 167 541C153 541 139 541 125 541C111 541 97 541 83.2 541C69.3 541 55.7 541 41.8 541C28 541 14 541 7 541L0 541Z" fill="#007c9e"></path><path d="M0 498L7 497.7C14 497.3 28 496.7 41.8 496.5C55.7 496.3 69.3 496.7 83.2 496.5C97 496.3 111 495.7 125 495.8C139 496 153 497 167 496.8C181 496.7 195 495.3 208.8 494.8C222.7 494.3 236.3 494.7 250.2 495C264 495.3 278 495.7 292 495.7C306 495.7 320 495.3 334 495.5C348 495.7 362 496.3 375.8 496.8C389.7 497.3 403.3 497.7 417.2 497.5C431 497.3 445 496.7 459 496.5C473 496.3 487 496.7 501 496.3C515 496 529 495 542.8 494.8C556.7 494.7 570.3 495.3 584.2 495.5C598 495.7 612 495.3 626 495.3C640 495.3 654 495.7 668 496.2C682 496.7 696 497.3 709.8 497.7C723.7 498 737.3 498 751.2 497.8C765 497.7 779 497.3 793 497C807 496.7 821 496.3 835 496.2C849 496 863 496 876.8 495.7C890.7 495.3 904.3 494.7 918.2 494.5C932 494.3 946 494.7 953 494.8L960 495L960 541L953 541C946 541 932 541 918.2 541C904.3 541 890.7 541 876.8 541C863 541 849 541 835 541C821 541 807 541 793 541C779 541 765 541 751.2 541C737.3 541 723.7 541 709.8 541C696 541 682 541 668 541C654 541 640 541 626 541C612 541 598 541 584.2 541C570.3 541 556.7 541 542.8 541C529 541 515 541 501 541C487 541 473 541 459 541C445 541 431 541 417.2 541C403.3 541 389.7 541 375.8 541C362 541 348 541 334 541C320 541 306 541 292 541C278 541 264 541 250.2 541C236.3 541 222.7 541 208.8 541C195 541 181 541 167 541C153 541 139 541 125 541C111 541 97 541 83.2 541C69.3 541 55.7 541 41.8 541C28 541 14 541 7 541L0 541Z" fill="#007095"></path><path d="M0 516L7 516.5C14 517 28 518 41.8 518C55.7 518 69.3 517 83.2 516.8C97 516.7 111 517.3 125 517.5C139 517.7 153 517.3 167 517C181 516.7 195 516.3 208.8 516.3C222.7 516.3 236.3 516.7 250.2 516.7C264 516.7 278 516.3 292 516.7C306 517 320 518 334 518.2C348 518.3 362 517.7 375.8 517.5C389.7 517.3 403.3 517.7 417.2 517.8C431 518 445 518 459 518C473 518 487 518 501 517.7C515 517.3 529 516.7 542.8 516.3C556.7 516 570.3 516 584.2 515.8C598 515.7 612 515.3 626 515.3C640 515.3 654 515.7 668 516.2C682 516.7 696 517.3 709.8 517.7C723.7 518 737.3 518 751.2 517.7C765 517.3 779 516.7 793 516.3C807 516 821 516 835 516.3C849 516.7 863 517.3 876.8 517.7C890.7 518 904.3 518 918.2 518C932 518 946 518 953 518L960 518L960 541L953 541C946 541 932 541 918.2 541C904.3 541 890.7 541 876.8 541C863 541 849 541 835 541C821 541 807 541 793 541C779 541 765 541 751.2 541C737.3 541 723.7 541 709.8 541C696 541 682 541 668 541C654 541 640 541 626 541C612 541 598 541 584.2 541C570.3 541 556.7 541 542.8 541C529 541 515 541 501 541C487 541 473 541 459 541C445 541 431 541 417.2 541C403.3 541 389.7 541 375.8 541C362 541 348 541 334 541C320 541 306 541 292 541C278 541 264 541 250.2 541C236.3 541 222.7 541 208.8 541C195 541 181 541 167 541C153 541 139 541 125 541C111 541 97 541 83.2 541C69.3 541 55.7 541 41.8 541C28 541 14 541 7 541L0 541Z" fill="#03658c"></path></svg>