<svg id="visual" viewBox="0 0 960 540" width="960" height="540" xmlns="http://www.w3.org/2000/svg" xmlns:xlink="http://www.w3.org/1999/xlink" version="1.1"><rect x="0" y="0" width="960" height="540" fill="#5EC8F2"></rect><path d="M0 450L8.8 450.3C17.7 450.7 35.3 451.3 53.2 451.8C71 452.3 89 452.7 106.8 452.7C124.7 452.7 142.3 452.3 160 452.3C177.7 452.3 195.3 452.7 213.2 452.7C231 452.7 249 452.3 266.8 452.2C284.7 452 302.3 452 320 451.8C337.7 451.7 355.3 451.3 373.2 451.5C391 451.7 409 452.3 426.8 452.7C444.7 453 462.3 453 480 452.8C497.7 452.7 515.3 452.3 533.2 452.5C551 452.7 569 453.3 586.8 453.7C604.7 454 622.3 454 640 453.5C657.7 453 675.3 452 693.2 451.5C711 451 729 451 746.8 451.3C764.7 451.7 782.3 452.3 800 452.8C817.7 453.3 835.3 453.7 853.2 453.5C871 453.3 889 452.7 906.8 452.7C924.7 452.7 942.3 453.3 951.2 453.7L960 454L960 541L951.2 541C942.3 541 924.7 541 906.8 541C889 541 871 541 853.2 541C835.3 541 817.7 541 800 541C782.3 541 764.7 541 746.8 541C729 541 711 541 693.2 541C675.3 541 657.7 541 640 541C622.3 541 604.7 541 586.8 541C569 541 551 541 533.2 541C515.3 541 497.7 541 480 541C462.3 541 444.7 541 426.8 541C409 541 391 541 373.2 541C355.3 541 337.7 541 320 541C302.3 541 284.7 541 266.8 541C249 541 231 541 213.2 541C195.3 541 177.7 541 160 541C142.3 541 124.7 541 106.8 541C89 541 71 541 53.2 541C35.3 541 17.7 541 8.8 541L0 541Z" fill="#0388a6"></path><path d="M0 476L8.8 475.7C17.7 475.3 35.3 474.7 53.2 474.7C71 474.7 89 475.3 106.8 475.5C124.7 475.7 142.3 475.3 160 474.7C177.7 474 195.3 473 213.2 473C231 473 249 474 266.8 474.3C284.7 474.7 302.3 474.3 320 474C337.7 473.7 355.3 473.3 373.2 473.2C391 473 409 473 426.8 473.5C444.7 474 462.3 475 480 475.2C497.7 475.3 515.3 474.7 533.2 474C551 473.3 569 472.7 586.8 472.5C604.7 472.3 622.3 472.7 640 473.2C657.7 473.7 675.3 474.3 693.2 474.3C711 474.3 729 473.7 746.8 473.8C764.7 474 782.3 475 800 475.5C817.7 476 835.3 476 853.2 475.7C871 475.3 889 474.7 906.8 474.3C924.7 474 942.3 474 951.2 474L960 474L960 541L951.2 541C942.3 541 924.7 541 906.8 541C889 541 871 541 853.2 541C835.3 541 817.7 541 800 541C782.3 541 764.7 541 746.8 541C729 541 711 541 693.2 541C675.3 541 657.7 541 640 541C622.3 541 604.7 541 586.8 541C569 541 551 541 533.2 541C515.3 541 497.7 541 480 541C462.3 541 444.7 541 426.8 541C409 541 391 541 373.2 541C355.3 541 337.7 541 320 541C302.3 541 284.7 541 266.8 541C249 541 231 541 213.2 541C195.3 541 177.7 541 160 541C142.3 541 124.7 541 106.8 541C89 541 71 541 53.2 541C35.3 541 17.7 541 8.8 541L0 541Z" fill="#007c9e"></path><path d="M0 496L8.8 495.8C17.7 495.7 35.3 495.3 53.2 495.3C71 495.3 89 495.7 106.8 495.7C124.7 495.7 142.3 495.3 160 495.2C177.7 495 195.3 495 213.2 494.8C231 494.7 249 494.3 266.8 494.5C284.7 494.7 302.3 495.3 320 495.7C337.7 496 355.3 496 373.2 496C391 496 409 496 426.8 496.2C444.7 496.3 462.3 496.7 480 496.5C497.7 496.3 515.3 495.7 533.2 495.5C551 495.3 569 495.7 586.8 495.8C604.7 496 622.3 496 640 496C657.7 496 675.3 496 693.2 495.7C711 495.3 729 494.7 746.8 494.5C764.7 494.3 782.3 494.7 800 494.8C817.7 495 835.3 495 853.2 494.8C871 494.7 889 494.3 906.8 494.7C924.7 495 942.3 496 951.2 496.5L960 497L960 541L951.2 541C942.3 541 924.7 541 906.8 541C889 541 871 541 853.2 541C835.3 541 817.7 541 800 541C782.3 541 764.7 541 746.8 541C729 541 711 541 693.2 541C675.3 541 657.7 541 640 541C622.3 541 604.7 541 586.8 541C569 541 551 541 533.2 541C515.3 541 497.7 541 480 541C462.3 541 444.7 541 426.8 541C409 541 391 541 373.2 541C355.3 541 337.7 541 320 541C302.3 541 284.7 541 266.8 541C249 541 231 541 213.2 541C195.3 541 177.7 541 160 541C142.3 541 124.7 541 106.8 541C89 541 71 541 53.2 541C35.3 541 17.7 541 8.8 541L0 541Z" fill="#007095"></path><path d="M0 517L8.8 516.7C17.7 516.3 35.3 515.7 53.2 515.5C71 515.3 89 515.7 106.8 515.8C124.7 516 142.3 516 160 516.3C177.7 516.7 195.3 517.3 213.2 517.3C231 517.3 249 516.7 266.8 516.8C284.7 517 302.3 518 320 518C337.7 518 355.3 517 373.2 516.7C391 516.3 409 516.7 426.8 516.7C444.7 516.7 462.3 516.3 480 516.7C497.7 517 515.3 518 533.2 518.5C551 519 569 519 586.8 518.5C604.7 518 622.3 517 640 516.8C657.7 516.7 675.3 517.3 693.2 517.5C711 517.7 729 517.3 746.8 517C764.7 516.7 782.3 516.3 800 516C817.7 515.7 835.3 515.3 853.2 515.5C871 515.7 889 516.3 906.8 516.7C924.7 517 942.3 517 951.2 517L960 517L960 541L951.2 541C942.3 541 924.7 541 906.8 541C889 541 871 541 853.2 541C835.3 541 817.7 541 800 541C782.3 541 764.7 541 746.8 541C729 541 711 541 693.2 541C675.3 541 657.7 541 640 541C622.3 541 604.7 541 586.8 541C569 541 551 541 533.2 541C515.3 541 497.7 541 480 541C462.3 541 444.7 541 426.8 541C409 541 391 541 373.2 541C355.3 541 337.7 541 320 541C302.3 541 284.7 541 266.8 541C249 541 231 541 213.2 541C195.3 541 177.7 541 160 541C142.3 541 124.7 541 106.8 541C89 541 71 541 53.2 541C35.3 541 17.7 541 8.8 541L0 541Z" fill="#03658c"></path></svg>