<svg id="visual" viewBox="0 0 960 540" width="960" height="540" xmlns="http://www.w3.org/2000/svg" xmlns:xlink="http://www.w3.org/1999/xlink" version="1.1"><rect x="0" y="0" width="960" height="540" fill="#5EC8F2"></rect><path d="M0 455L32 454.8C64 454.7 128 454.3 192 454.2C256 454 320 454 384 454C448 454 512 454 576 453.5C640 453 704 452 768 451.7C832 451.3 896 451.7 928 451.8L960 452L960 541L928 541C896 541 832 541 768 541C704 541 640 541 576 541C512 541 448 541 384 541C320 541 256 541 192 541C128 541 64 541 32 541L0 541Z" fill="#0388a6"></path><path d="M0 475L32 474.7C64 474.3 128 473.7 192 473.3C256 473 320 473 384 473C448 473 512 473 576 473.2C640 473.3 704 473.7 768 474.2C832 474.7 896 475.3 928 475.7L960 476L960 541L928 541C896 541 832 541 768 541C704 541 640 541 576 541C512 541 448 541 384 541C320 541 256 541 192 541C128 541 64 541 32 541L0 541Z" fill="#007c9e"></path><path d="M0 494L32 494.5C64 495 128 496 192 496.3C256 496.7 320 496.3 384 496C448 495.7 512 495.3 576 495C640 494.7 704 494.3 768 494.2C832 494 896 494 928 494L960 494L960 541L928 541C896 541 832 541 768 541C704 541 640 541 576 541C512 541 448 541 384 541C320 541 256 541 192 541C128 541 64 541 32 541L0 541Z" fill="#007095"></path><path d="M0 516L32 516.5C64 517 128 518 192 518.7C256 519.3 320 519.7 384 519.5C448 519.3 512 518.7 576 518C640 517.3 704 516.7 768 516.3C832 516 896 516 928 516L960 516L960 541L928 541C896 541 832 541 768 541C704 541 640 541 576 541C512 541 448 541 384 541C320 541 256 541 192 541C128 541 64 541 32 541L0 541Z" fill="#03658c"></path></svg>