<svg id="visual" viewBox="0 0 960 540" width="960" height="540" xmlns="http://www.w3.org/2000/svg" xmlns:xlink="http://www.w3.org/1999/xlink" version="1.1"><rect x="0" y="0" width="960" height="540" fill="#5EC8F2"></rect><path d="M0 454L80 453.8C160 453.7 320 453.3 480 453C640 452.7 800 452.3 880 452.2L960 452L960 541L880 541C800 541 640 541 480 541C320 541 160 541 80 541L0 541Z" fill="#0388a6"></path><path d="M0 474L80 474C160 474 320 474 480 474C640 474 800 474 880 474L960 474L960 541L880 541C800 541 640 541 480 541C320 541 160 541 80 541L0 541Z" fill="#007c9e"></path><path d="M0 498L80 497.7C160 497.3 320 496.7 480 496.2C640 495.7 800 495.3 880 495.2L960 495L960 541L880 541C800 541 640 541 480 541C320 541 160 541 80 541L0 541Z" fill="#007095"></path><path d="M0 517L80 517.3C160 517.7 320 518.3 480 518.3C640 518.3 800 517.7 880 517.3L960 517L960 541L880 541C800 541 640 541 480 541C320 541 160 541 80 541L0 541Z" fill="#03658c"></path></svg>